<?xml version="1.0" encoding="UTF-8" standalone="no"?>
<!-- Created with Inkscape (http://www.inkscape.org/) -->

<svg
   width="210mm"
   height="297mm"
   viewBox="0 0 210 297"
   version="1.1"
   id="svg5"
   xml:space="preserve"
   sodipodi:docname="HeroBg.svg"
   inkscape:version="1.2.1 (9c6d41e410, 2022-07-14)"
   xmlns:inkscape="http://www.inkscape.org/namespaces/inkscape"
   xmlns:sodipodi="http://sodipodi.sourceforge.net/DTD/sodipodi-0.dtd"
   xmlns="http://www.w3.org/2000/svg"
   xmlns:svg="http://www.w3.org/2000/svg"><sodipodi:namedview
     id="namedview7"
     pagecolor="#505050"
     bordercolor="#ffffff"
     borderopacity="1"
     inkscape:showpageshadow="0"
     inkscape:pageopacity="0"
     inkscape:pagecheckerboard="1"
     inkscape:deskcolor="#505050"
     inkscape:document-units="mm"
     showgrid="false"
     inkscape:zoom="0.58124998"
     inkscape:cx="583.22583"
     inkscape:cy="179.78495"
     inkscape:window-width="1920"
     inkscape:window-height="991"
     inkscape:window-x="-9"
     inkscape:window-y="-9"
     inkscape:window-maximized="1"
     inkscape:current-layer="g1061"><inkscape:page
       x="0"
       y="0"
       width="210"
       height="297"
       id="page2255" /><inkscape:page
       x="220"
       y="0"
       width="264.58334"
       height="176.3889"
       id="page2257" /></sodipodi:namedview><defs
     id="defs2"><clipPath
       clipPathUnits="userSpaceOnUse"
       id="clipPath1067"><path
         d="M 0,0 H 750 V 500 H 0 Z"
         id="path1065" /></clipPath><pattern
       patternTransform="matrix(-1.57308,0,0,1.57308,-21173.663,-4415.0678)"
       patternUnits="userSpaceOnUse"
       x="0"
       y="0"
       width="68"
       height="68"
       id="pattern1193"><path
         d="M 68,0 0,0 0,68 68,68 68,0 Z"
         style="fill:#ffc23c;fill-opacity:1;fill-rule:nonzero;stroke:none"
         id="path1191" /></pattern><clipPath
       clipPathUnits="userSpaceOnUse"
       id="clipPath1411"><path
         d="M 52.5623,103.77 H 351.494 V 74.7038 H 52.5623 Z"
         id="path1409" /></clipPath></defs><g
     inkscape:label="Capa 1"
     inkscape:groupmode="layer"
     id="layer1" /><path
     d="M -13.506503,103.25563 H 223.82409 V -70.478576 H -13.506503 Z"
     style="fill:#ffefd2;fill-opacity:1;fill-rule:nonzero;stroke:none;stroke-width:0.331593"
     id="path1059" /><g
     id="g1061"
     transform="matrix(0.28234333,0,0,-0.32096506,0.14277756,200.96363)"><g
       id="g1063"
       clip-path="url(#clipPath1067)"
       transform="translate(0,8.2433685)"><g
         id="g1073"
         transform="matrix(1.1207659,0,0,1.0825741,435.30898,417.21025)"><path
           d="M 0,0 5.566,34.997 16.312,3.017 Z"
           style="fill:#68500d;fill-opacity:1;fill-rule:nonzero;stroke:none"
           id="path1075" /></g><g
         id="g1077"
         transform="matrix(1.1207659,0,0,1.0825741,450.43607,417.21025)"><path
           d="M 0,0 4.743,44.591 14.411,3.017 Z"
           style="fill:#68500d;fill-opacity:1;fill-rule:nonzero;stroke:none"
           id="path1079" /></g><g
         id="g1081"
         transform="matrix(1.1207659,0,0,1.0825741,477.73725,427.9705)"><path
           d="M 0,0 3.653,25.058 13.103,2.049 Z"
           style="fill:#68500d;fill-opacity:1;fill-rule:nonzero;stroke:none"
           id="path1083" /></g><g
         id="g1085"
         transform="matrix(1.1207659,0,0,1.0825741,508.20259,437.14802)"><path
           d="M 0,0 7.782,48.034 22.419,6.776 Z"
           style="fill:#68500d;fill-opacity:1;fill-rule:nonzero;stroke:none"
           id="path1087" /></g><g
         id="g1089"
         transform="matrix(1.1207659,0,0,1.0825741,535.01344,447.6492)"><path
           d="M 0,0 1.998,20.274 11.836,0 Z"
           style="fill:#68500d;fill-opacity:1;fill-rule:nonzero;stroke:none"
           id="path1091" /></g><g
         id="g1093"
         transform="matrix(1.1207659,0,0,1.0825741,575.72873,458.62347)"><path
           d="M 0,0 1.945,28.648 13.561,4.721 Z"
           style="fill:#68500d;fill-opacity:1;fill-rule:nonzero;stroke:none"
           id="path1095" /></g><g
         id="g1097"
         transform="matrix(1.1207659,0,0,1.0825741,596.37183,495.87608)"><path
           d="m 0,0 -6.315,-44.712 19.469,5.584 z"
           style="fill:#68500d;fill-opacity:1;fill-rule:nonzero;stroke:none"
           id="path1099" /></g><g
         id="g1101"
         transform="matrix(1.1207659,0,0,1.0825741,167.32555,393.826)"><path
           d="M 0,0 -5.566,34.997 -16.312,3.017 Z"
           style="fill:#68500d;fill-opacity:1;fill-rule:nonzero;stroke:none"
           id="path1103" /></g><g
         id="g1105"
         transform="matrix(1.1207659,0,0,1.0825741,152.19846,393.826)"><path
           d="M 0,0 -4.743,44.591 -14.411,3.017 Z"
           style="fill:#68500d;fill-opacity:1;fill-rule:nonzero;stroke:none"
           id="path1107" /></g><g
         id="g1109"
         transform="matrix(1.1207659,0,0,1.0825741,124.89739,404.58625)"><path
           d="M 0,0 -3.653,25.058 -13.102,2.049 Z"
           style="fill:#68500d;fill-opacity:1;fill-rule:nonzero;stroke:none"
           id="path1111" /></g><g
         id="g1113"
         transform="matrix(1.1207659,0,0,1.0825741,73.384735,406.49342)"><path
           d="M 0,0 -1.945,28.647 -13.561,4.721 Z"
           style="fill:#68500d;fill-opacity:1;fill-rule:nonzero;stroke:none"
           id="path1115" /></g><g
         id="g1117"
         transform="matrix(1.1207659,0,0,1.0825741,54.736764,458.78846)"><path
           d="m 0,0 6.315,-44.712 -19.469,5.585 z"
           style="fill:#68500d;fill-opacity:1;fill-rule:nonzero;stroke:none"
           id="path1119" /></g><g
         id="g1121"
         transform="matrix(1.1207659,0,0,1.0825741,668.31778,491.64415)"><path
           d="m 0,0 c -63.478,-19.672 -125.175,-44.103 -189.812,-60.452 -160.302,-40.547 -336.391,-28.581 -488.121,33.022 v -164.779 l 787.414,-25.268 0.123,243.793 C 72.399,20.664 35.705,11.065 0,0"
           style="fill:#ff7d00;fill-opacity:1;fill-rule:nonzero;stroke:none"
           id="path1123" /></g><g
         id="g1125"
         transform="matrix(1.1207659,0,0,1.0825741,36.833985,420.95704)"><path
           d="m 0,0 -21.428,9.277 -1.322,7.205 19.884,-4.9 -1.569,6.337 -18.315,6.082 17.53,-2.91 -11.962,48.334 -6.891,7.502 5.587,-2.235 -8.052,32.535 -15.447,-69.744 13.354,6.882 -15.277,-15.566 -14.74,-66.554 -1.152,-5.201 -2.609,-11.779 -1.569,-7.085 -5.006,-22.604 90.179,-1.218 z"
           style="fill:#ac984d;fill-opacity:1;fill-rule:nonzero;stroke:none"
           id="path1127" /></g><g
         id="g1129"
         transform="matrix(1.1207659,0,0,1.0825741,43.934597,392.61027)"><path
           d="m 0,0 c -0.091,0 -0.183,0.021 -0.267,0.067 l -23.759,13.135 c -0.25,0.137 -0.333,0.44 -0.186,0.674 0.147,0.234 0.47,0.311 0.719,0.174 L 0.267,0.916 C 0.517,0.778 0.6,0.477 0.452,0.242 0.355,0.086 0.18,0 0,0"
           style="fill:#010001;fill-opacity:1;fill-rule:nonzero;stroke:none"
           id="path1131" /></g><g
         id="g1133"
         transform="matrix(1.1207659,0,0,1.0825741,45.359651,374.94125)"><path
           d="m 0,0 c -0.097,0 -0.197,0.024 -0.284,0.078 l -22.982,13.89 c -0.244,0.147 -0.315,0.452 -0.156,0.679 0.157,0.23 0.484,0.297 0.724,0.148 L 0.284,0.905 C 0.528,0.758 0.599,0.453 0.441,0.226 0.34,0.079 0.172,0 0,0"
           style="fill:#010001;fill-opacity:1;fill-rule:nonzero;stroke:none"
           id="path1135" /></g><g
         id="g1137"
         transform="matrix(1.1207659,0,0,1.0825741,19.60389,480.26337)"><path
           d="m 0,0 c -0.089,0 -0.179,0.021 -0.261,0.064 l -10.375,5.56 c -0.252,0.136 -0.34,0.436 -0.196,0.672 0.144,0.237 0.466,0.315 0.716,0.183 L 0.26,0.92 C 0.513,0.785 0.6,0.485 0.456,0.249 0.359,0.09 0.181,0 0,0"
           style="fill:#010001;fill-opacity:1;fill-rule:nonzero;stroke:none"
           id="path1139" /></g><g
         id="g1141"
         transform="matrix(1.1207659,0,0,1.0825741,6.8185284,346.09661)"><path
           d="m 0,0 -1.793,5.756 -4.55,14.606 -2.005,6.437 -14.146,45.412 -13.779,9.904 12.086,-4.47 -2.318,7.443 -13.406,8.965 11.832,-3.912 -16.9,54.253 -7.182,-34.99 6.671,2.856 -7.383,-6.323 -9.301,-45.307 16.684,6.835 V 60.319 L -64.3,50.272 -65.813,42.9 l 17.869,9.426 -19.058,-15.217 -12.494,-60.864 86.445,1.448 z"
           style="fill:#68500d;fill-opacity:1;fill-rule:nonzero;stroke:none"
           id="path1143" /></g><g
         id="g1145"
         transform="matrix(1.1207659,0,0,1.0825741,-12.900451,397.60126)"><path
           d="m 0,0 c -0.078,0 -0.156,0.017 -0.23,0.05 l -14.891,6.819 c -0.26,0.119 -0.368,0.414 -0.241,0.658 0.129,0.244 0.442,0.343 0.703,0.227 L 0.231,0.935 C 0.491,0.815 0.599,0.521 0.472,0.276 0.38,0.102 0.194,0 0,0"
           style="fill:#010001;fill-opacity:1;fill-rule:nonzero;stroke:none"
           id="path1147" /></g><g
         id="g1149"
         transform="matrix(1.1207659,0,0,1.0825741,-10.591674,382.34584)"><path
           d="m 0,0 c -0.108,0 -0.215,0.031 -0.309,0.095 l -15.468,10.547 c -0.235,0.16 -0.286,0.467 -0.116,0.687 0.171,0.222 0.499,0.268 0.733,0.109 L 0.309,0.891 C 0.543,0.73 0.594,0.423 0.424,0.203 0.322,0.07 0.162,0 0,0"
           style="fill:#010001;fill-opacity:1;fill-rule:nonzero;stroke:none"
           id="path1151" /></g><g
         id="g1153"
         transform="matrix(1.1207659,0,0,1.0825741,-71.187453,351.99999)"><path
           d="M 0,0 C -0.164,0 -0.326,0.072 -0.428,0.208 -0.596,0.43 -0.54,0.736 -0.303,0.895 l 18.282,12.137 c 0.236,0.155 0.564,0.106 0.732,-0.117 0.167,-0.223 0.112,-0.529 -0.125,-0.686 L 0.304,0.091 C 0.211,0.03 0.106,0 0,0"
           style="fill:#010001;fill-opacity:1;fill-rule:nonzero;stroke:none"
           id="path1155" /></g><g
         id="g1157"
         transform="matrix(1.1207659,0,0,1.0825741,7.1085834,340.54419)"><path
           d="m 0,0 c -0.094,0 -0.189,0.024 -0.275,0.073 l -25.201,14.591 c -0.247,0.143 -0.323,0.445 -0.171,0.678 0.153,0.231 0.477,0.3 0.723,0.16 L 0.276,0.911 C 0.523,0.769 0.599,0.466 0.447,0.233 0.348,0.083 0.175,0 0,0"
           style="fill:#010001;fill-opacity:1;fill-rule:nonzero;stroke:none"
           id="path1159" /></g><g
         id="g1161"
         transform="matrix(1.1207659,0,0,1.0825741,508.20259,375.64114)"><path
           d="M 0,0 12.487,43.958 20.381,0 Z"
           style="fill:#800d1c;fill-opacity:1;fill-rule:nonzero;stroke:none"
           id="path1163" /></g><g
         id="g1165"
         transform="matrix(1.1207659,0,0,1.0825741,533.32892,384.66959)"><path
           d="M 0,0 10.503,42.916 20.75,0 Z"
           style="fill:#800d1c;fill-opacity:1;fill-rule:nonzero;stroke:none"
           id="path1167" /></g><g
         id="g1169"
         transform="matrix(1.1207659,0,0,1.0825741,566.62251,368.86975)"><path
           d="M 0,0 14.072,45.348 20.141,-1.727 Z"
           style="fill:#800d1c;fill-opacity:1;fill-rule:nonzero;stroke:none"
           id="path1171" /></g><g
         id="g1173"
         transform="matrix(1.1207659,0,0,1.0825741,644.14028,401.97497)"><path
           d="M 0,0 12.663,43.61 22.668,-2.346 Z"
           style="fill:#800d1c;fill-opacity:1;fill-rule:nonzero;stroke:none"
           id="path1175" /></g><g
         id="g1177"
         transform="matrix(1.1207659,0,0,1.0825741,685.53533,462.08316)"><path
           d="M 0,0 -9.449,-46.543 H 11.116 Z"
           style="fill:#800d1c;fill-opacity:1;fill-rule:nonzero;stroke:none"
           id="path1179" /></g><g
         id="g1181"
         transform="matrix(1.1207659,0,0,1.0825741,805.28659,352.76862)"><path
           d="m 0,0 c -268.95,0.26 -466.813,-0.631 -810.288,-24.56 0.898,-15.718 6.425,-60.643 7.323,-76.361 V -202.19 c 6.288,0.449 19.295,1.572 25.598,1.572 H 0.146 c 1.33,6.291 5.264,13.918 6.594,20.209 z"
           style="fill:#7dcfce;fill-opacity:1;fill-rule:nonzero;stroke:none"
           id="path1183" /></g><g
         id="g1189"
         transform="matrix(1.1316243,0,0,1.1689676,825.62199,274.5216)"><path
           d="M 0,0 V -118.936 H -787.414 V -4.45 C -533.453,16.915 -256.859,22.779 0,0"
           style="fill:url(#pattern1193);fill-opacity:1;fill-rule:nonzero;stroke:none"
           id="path1195" /></g><g
         id="g1197"
         transform="matrix(1.1207659,0,0,1.0825741,-24.880878,280.92749)"><path
           d="M 0,0 -7.226,30.206 -9.764,4.397 -17.174,19.91 -18.522,3.316 -22.493,10.912 -23.9,4.397 -26.124,22.315 -31.311,-2.218 Z"
           style="fill:#ac4c00;fill-opacity:1;fill-rule:nonzero;stroke:none"
           id="path1199" /></g><g
         id="g1201"
         transform="matrix(1.1207659,0,0,1.0825741,587.25592,259.73057)"><path
           d="M 0,0 2.965,-9.081 6.67,9.52 l 3.774,-16.49 1.428,9.49 4.649,-9.49 2.295,21.965 3.35,-20.486 4.02,14.15 3.953,-18.615 -32.856,-0.598 z"
           style="fill:#ffffff;fill-opacity:1;fill-rule:nonzero;stroke:none"
           id="path1203" /></g><g
         id="g1205"
         transform="matrix(1.1207659,0,0,1.0825741,383.78333,270.54474)"><path
           d="M 0,0 -5.672,20.221 -8.416,5.015 -14.813,29.142 -17.129,2.543 -24.494,23.628 -26.176,1.213 -30.128,10.083 -33.34,-1.321 Z"
           style="fill:#ffffff;fill-opacity:1;fill-rule:nonzero;stroke:none"
           id="path1207" /></g><g
         id="g1209"
         transform="matrix(1.1207659,0,0,1.0825741,674.98107,268.69884)"><path
           d="M 0,0 -5.422,31.229 -9.791,3.554 -13.926,22.028 -17.942,8.591 -22.412,28.475 -27.272,1.401 Z"
           style="fill:#ac4c00;fill-opacity:1;fill-rule:nonzero;stroke:none"
           id="path1211" /></g><g
         id="g1213"
         transform="matrix(1.1207659,0,0,1.0825741,171.15689,205.05322)"><path
           d="m 0,0 -6.12,25.276 -4.694,-16.291 -3.458,25.988 -8.152,-29.249 -8.813,19.966 -3.275,-21.312 -8.444,14.317 -5.9,-19.682 z"
           style="fill:#ffffff;fill-opacity:1;fill-rule:nonzero;stroke:none"
           id="path1215" /></g><g
         id="g1217"
         transform="matrix(1.1207659,0,0,1.0825741,324.37288,206.27534)"><path
           d="m 0,0 -5.682,16.074 -5.043,-13.751 -6.572,29.146 -6.665,-27.878 -3.803,10.176 -4.596,-10.81 -8.702,21.331 -5.132,-20.909 -5.929,7.182 V -1.102 Z"
           style="fill:#ac4c00;fill-opacity:1;fill-rule:nonzero;stroke:none"
           id="path1219" /></g><g
         id="g1221"
         transform="matrix(1.1207659,0,0,1.0825741,557.99461,272.05886)"><path
           d="M 0,0 -6.792,16.263 -9.534,3.225 -15.697,21.041 -20.257,0 -24.654,12.25 -28.656,-2.063 Z"
           style="fill:#ac4c00;fill-opacity:1;fill-rule:nonzero;stroke:none"
           id="path1223" /></g><g
         id="g1237"
         transform="matrix(1.1207659,0,0,1.0825741,134.92073,638.29645)"><path
           d="m 0,0 c -0.897,-1.334 -1.509,-2.902 -1.497,-4.51 0.012,-1.609 0.708,-3.25 2.01,-4.194 1.179,-0.854 2.742,-1.067 4.171,-0.789 1.428,0.278 2.735,1.008 3.892,1.89 1.609,1.227 3.001,2.811 3.692,4.713 0.69,1.901 0.602,4.142 -0.52,5.825 C 8.63,7.607 2.278,3.391 0,0"
           style="fill:#ff5f00;fill-opacity:1;fill-rule:nonzero;stroke:none"
           id="path1239" /></g><g
         id="g1241"
         transform="matrix(1.1207659,0,0,1.0825741,113.89102,676.62261)"><path
           d="m 0,0 c -1.225,-1.108 -2.098,-2.733 -1.895,-4.372 0.205,-1.651 1.49,-3.037 3.023,-3.682 1.534,-0.645 3.274,-0.636 4.908,-0.326 2.086,0.397 4.183,1.359 5.35,3.133 1.3,1.978 1.13,4.804 -0.397,6.613 C 7.913,5.009 2.875,2.6 0,0"
           style="fill:#fe3800;fill-opacity:1;fill-rule:nonzero;stroke:none"
           id="path1243" /></g><g
         id="g1245"
         transform="matrix(1.1207659,0,0,1.0825741,31.886924,686.53335)"><path
           d="m 0,0 c 0.737,-0.767 1.867,-1.073 2.926,-0.98 1.06,0.092 2.059,0.543 2.963,1.105 C 7.051,0.848 8.117,1.799 8.71,3.033 10.268,6.278 7.048,9.878 3.76,8.164 1.28,6.87 -2.776,2.889 0,0"
           style="fill:#fe3800;fill-opacity:1;fill-rule:nonzero;stroke:none"
           id="path1247" /></g><g
         id="g1249"
         transform="matrix(1.1207659,0,0,1.0825741,49.844844,683.10008)"><path
           d="m 0,0 c -1.118,-0.973 -2.109,-2.442 -1.652,-3.853 0.326,-1.009 1.347,-1.68 2.395,-1.85 1.048,-0.171 2.119,0.079 3.124,0.421 1.176,0.4 2.331,0.942 3.237,1.792 C 8.7,-1.992 9.489,1.526 6.925,2.555 4.755,3.425 1.52,1.323 0,0"
           style="fill:#fe3800;fill-opacity:1;fill-rule:nonzero;stroke:none"
           id="path1251" /></g><g
         id="g1253"
         transform="matrix(1.1207659,0,0,1.0825741,-30.10488,272.13157)"><path
           d="m 0,0 -5.115,401.113 19.8,1.647 L 37.424,0 Z"
           style="fill:#800d1c;fill-opacity:1;fill-rule:nonzero;stroke:none"
           id="path1255" /></g><g
         id="g1257"
         transform="matrix(1.1207659,0,0,1.0825741,-1.9418256,430.98774)"><path
           d="M 0,0 C -0.299,0 -0.551,0.232 -0.572,0.535 L -6.86,91.866 c -0.022,0.316 0.217,0.591 0.534,0.613 0.312,0.021 0.589,-0.218 0.613,-0.535 L 0.575,0.613 C 0.596,0.297 0.357,0.023 0.041,0.001 0.027,0 0.014,0 0,0"
           style="fill:#010001;fill-opacity:1;fill-rule:nonzero;stroke:none"
           id="path1259" /></g><g
         id="g1261"
         transform="matrix(1.1207659,0,0,1.0825741,-22.776192,480.64866)"><path
           d="m 0,0 h -0.014 c -0.317,0.008 -0.568,0.271 -0.561,0.588 l 0.403,17.447 c 0.008,0.317 0.312,0.59 0.589,0.561 0.317,-0.008 0.567,-0.27 0.561,-0.588 L 0.575,0.562 C 0.567,0.248 0.311,0 0,0"
           style="fill:#010001;fill-opacity:1;fill-rule:nonzero;stroke:none"
           id="path1263" /></g><g
         id="g1265"
         transform="matrix(1.1207659,0,0,1.0825741,-17.896938,471.42567)"><path
           d="m 0,0 c -0.311,0 -0.566,0.247 -0.575,0.559 l -0.405,15.42 c -0.008,0.316 0.242,0.58 0.56,0.589 0.318,-0.003 0.583,-0.243 0.589,-0.56 L 0.575,0.591 C 0.583,0.273 0.332,0.009 0.016,0 Z"
           style="fill:#010001;fill-opacity:1;fill-rule:nonzero;stroke:none"
           id="path1267" /></g><g
         id="g1269"
         transform="matrix(1.1207659,0,0,1.0825741,-16.557174,344.92732)"><path
           d="m 0,0 c -0.313,0 -0.569,0.251 -0.575,0.565 l -0.405,24.75 c -0.005,0.318 0.248,0.58 0.566,0.584 h 0.009 c 0.313,0 0.569,-0.251 0.575,-0.565 L 0.575,0.584 C 0.581,0.267 0.327,0.006 0.009,0 Z"
           style="fill:#010001;fill-opacity:1;fill-rule:nonzero;stroke:none"
           id="path1271" /></g><g
         id="g1273"
         transform="matrix(1.1207659,0,0,1.0825741,-10.517815,584.7518)"><path
           d="m 0,0 c -0.301,0 -0.553,0.233 -0.574,0.538 l -2.028,31.214 c -0.021,0.317 0.22,0.591 0.537,0.611 0.28,0.01 0.589,-0.219 0.61,-0.537 L 0.574,0.612 C 0.594,0.295 0.354,0.021 0.037,0.001 0.025,0 0.013,0 0,0"
           style="fill:#010001;fill-opacity:1;fill-rule:nonzero;stroke:none"
           id="path1275" /></g><g
         id="g1277"
         transform="matrix(1.1207659,0,0,1.0825741,-24.157424,572.09445)"><path
           d="m 0,0 -55.418,92.634 3.946,2.361 L 3.946,2.361 Z"
           style="fill:#800d1c;fill-opacity:1;fill-rule:nonzero;stroke:none"
           id="path1279" /></g><g
         id="g1281"
         transform="matrix(1.1207659,0,0,1.0825741,-9.7401156,536.44409)"><path
           d="m 0,0 -4.03,2.214 41.589,75.697 4.03,-2.213 z"
           style="fill:#800d1c;fill-opacity:1;fill-rule:nonzero;stroke:none"
           id="path1283" /></g><g
         id="g1285"
         transform="matrix(1.1207659,0,0,1.0825741,-29.515021,456.85953)"><path
           d="m 0,0 -32.336,54.015 3.945,2.361 L 3.944,2.362 Z"
           style="fill:#800d1c;fill-opacity:1;fill-rule:nonzero;stroke:none"
           id="path1287" /></g><g
         id="g1289"
         transform="matrix(1.1207659,0,0,1.0825741,-133.48959,544.65531)"><path
           d="m 0,0 c 0.53,-8.567 6.252,-16.996 14.534,-19.25 4.384,-1.193 9.068,-0.661 13.517,-1.585 5.895,-1.225 10.935,-4.886 16.316,-7.586 15.038,-7.545 34.184,-7.173 48.057,2.345 13.873,9.517 21.135,28.354 15.766,44.3 C 103.2,33.047 88.638,43.229 73.312,46.351 58.83,49.301 38.774,48.715 27.081,38.523 15.171,28.142 -1.118,18.048 0,0"
           style="fill:#ff7d00;fill-opacity:1;fill-rule:nonzero;stroke:none"
           id="path1291" /></g><g
         id="g1293"
         transform="matrix(1.1207659,0,0,1.0825741,-22.092637,657.1379)"><path
           d="m 0,0 c -7.328,-3.148 -13.984,-8.763 -16.508,-16.329 -2.524,-7.565 0.127,-17.061 7.172,-20.799 4.478,-2.376 9.807,-2.191 14.868,-2.496 11.073,-0.667 21.801,-3.936 32.458,-7.019 10.656,-3.083 21.522,-6.025 32.616,-6.01 11.094,0.014 22.61,3.324 30.43,11.194 7.819,7.87 10.949,20.828 5.538,30.512 -3.139,5.619 -8.693,9.588 -14.675,11.965 C 85.917,3.396 79.474,4.332 73.084,5.108 48.186,8.13 23.587,10.135 0,0"
           style="fill:#ff7d00;fill-opacity:1;fill-rule:nonzero;stroke:none"
           id="path1295" /></g><g
         id="g1297"
         transform="matrix(1.1207659,0,0,1.0825741,-151.60733,529.13108)"><path
           d="m 0,0 c -5.732,-7.198 -8.974,-17.049 -6.035,-25.769 2.711,-8.042 10.273,-13.771 18.434,-16.098 8.163,-2.327 16.88,-1.693 25.242,-0.237 8.361,1.455 16.592,3.709 25.033,4.595 7.807,0.819 15.704,0.454 23.509,1.298 12.686,1.372 25.007,5.99 35.47,13.295 4.504,3.145 8.723,6.843 11.677,11.475 2.952,4.632 4.549,10.294 3.557,15.697 -0.972,5.3 -4.352,9.943 -8.569,13.296 -4.217,3.354 -9.238,5.542 -14.322,7.328 C 84.313,35.313 48.391,33.131 21.047,16.971 13.393,12.447 5.577,7.004 0,0"
           style="fill:#ff7d00;fill-opacity:1;fill-rule:nonzero;stroke:none"
           id="path1299" /></g><g
         id="g1301"
         transform="matrix(1.1207659,0,0,1.0825741,673.58886,177.66962)"><path
           d="m 0,0 c -5.059,1.098 -9.696,4.057 -12.831,8.188 -3.134,4.131 -4.74,9.401 -4.443,14.58 1.765,-2.196 4.457,-3.411 6.78,-4.921 2.296,-1.493 4.891,-3.238 6.553,-5.456 C -1.354,8.936 -0.817,4.132 0,0"
           style="fill:#ac984d;fill-opacity:1;fill-rule:nonzero;stroke:none"
           id="path1303" /></g><g
         id="g1305"
         transform="matrix(1.1207659,0,0,1.0825741,673.58886,177.26473)"><path
           d="m 0,0 c 0.105,0 0.21,0.044 0.284,0.13 0.135,0.156 0.117,0.392 -0.039,0.528 -5.464,4.708 -10.413,10.534 -14.709,17.318 -0.111,0.175 -0.344,0.224 -0.516,0.116 -0.175,-0.112 -0.228,-0.343 -0.117,-0.518 C -10.761,10.729 -5.764,4.847 -0.244,0.091 -0.174,0.029 -0.087,0 0,0"
           style="fill:#4d3200;fill-opacity:1;fill-rule:nonzero;stroke:none"
           id="path1307" /></g><g
         id="g1309"
         transform="matrix(1.1207659,0,0,1.0825741,675.66519,158.37782)"><path
           d="m 0,0 h 0.011 c 0.207,0.007 0.369,0.18 0.363,0.387 -0.57,18.784 -5.382,37.385 -13.914,53.79 -0.096,0.184 -0.324,0.256 -0.505,0.16 -0.184,-0.096 -0.255,-0.321 -0.159,-0.505 C -5.725,37.526 -0.942,19.037 -0.375,0.363 -0.368,0.16 -0.202,0 0,0"
           style="fill:#4d3200;fill-opacity:1;fill-rule:nonzero;stroke:none"
           id="path1311" /></g><g
         id="g1313"
         transform="matrix(1.1207659,0,0,1.0825741,672.42001,184.00116)"><path
           d="m 0,0 c 4.344,2.815 7.635,7.224 9.105,12.196 1.47,4.974 1.108,10.471 -1.001,15.21 C 7.229,24.729 5.142,22.64 3.503,20.404 1.884,18.195 0.073,15.646 -0.696,12.983 -1.895,8.836 -0.696,4.154 0,0"
           style="fill:#ac984d;fill-opacity:1;fill-rule:nonzero;stroke:none"
           id="path1315" /></g><g
         id="g1317"
         transform="matrix(1.1207659,0,0,1.0825741,672.42102,183.59519)"><path
           d="M 0,0 C 0.132,0 0.261,0.071 0.329,0.195 3.809,6.597 6.401,13.867 8.035,21.804 8.077,22.006 7.946,22.203 7.744,22.245 7.544,22.291 7.343,22.157 7.302,21.954 5.683,14.09 3.115,6.891 -0.33,0.554 -0.429,0.372 -0.361,0.145 -0.18,0.046 -0.122,0.015 -0.062,0 0,0"
           style="fill:#4d3200;fill-opacity:1;fill-rule:nonzero;stroke:none"
           id="path1319" /></g><g
         id="g1321"
         transform="matrix(1.1207659,0,0,1.0825741,670.38862,219.5084)"><path
           d="m 0,0 c 2.192,4.381 3.274,9.507 3.126,14.808 -0.044,1.589 -0.272,3.368 -1.403,4.61 -0.91,0.998 -2.202,1.416 -3.415,1.676 -3.05,0.652 -6.125,0.611 -8.954,-0.106 -1.275,-0.323 -2.075,-1.52 -2.037,-2.965 0.103,-3.928 0.887,-7.911 2.549,-11.715 -1.95,3.244 -3.719,6.6 -5.137,10.067 -0.712,1.742 -2.582,2.713 -4.079,2.112 -3.507,-1.409 -6.387,-4.104 -8.118,-7.588 -0.59,-1.188 -0.279,-2.783 0.778,-3.866 2.574,-2.637 5.235,-5.187 8.003,-7.574 -3.016,1.402 -5.941,3.093 -8.749,5.022 -1.308,0.901 -2.894,0.44 -3.296,-0.96 -0.453,-1.571 -0.814,-3.252 -1.116,-4.856 -0.483,-2.567 -0.032,-5.819 2.139,-7.643 1.272,-1.067 2.864,-1.419 4.374,-1.705 5.164,-0.974 10.474,-1.622 15.214,-0.283 C -5.381,-9.627 -2.244,-4.485 0,0"
           style="fill:#ffffff;fill-opacity:1;fill-rule:nonzero;stroke:none"
           id="path1323" /></g><g
         id="g1325"
         transform="matrix(1.1207659,0,0,1.0825741,649.50987,205.83873)"><path
           d="m 0,0 c 4.437,-0.884 9.162,0.528 12.74,3.295 3.578,2.767 6.066,6.782 7.5,11.071 -1.761,-0.881 -3.622,-1.784 -5.163,-3.01 -0.569,1.25 -1.4,2.398 -2.397,3.344 C 11.011,12.78 9.855,10.382 9.454,7.87 7.081,8.275 4.598,8.026 2.419,7.002 2.561,5.562 3.093,4.213 4.029,3.109 2.436,2.464 1.069,1.347 0,0"
           style="fill:#ac984d;fill-opacity:1;fill-rule:nonzero;stroke:none"
           id="path1327" /></g><g
         id="g1329"
         transform="matrix(1.1207659,0,0,1.0825741,771.25419,166.24554)"><path
           d="m 0,0 c 3.068,2.802 3.231,8.188 0.338,11.171 -2.894,2.982 -8.283,2.981 -11.176,-0.002 0.922,6.434 2.074,13.203 0.261,19.444 -1.814,6.241 -7.142,11.959 -13.641,12.041 -5.801,0.073 -10.689,-4.128 -14.758,-8.262 0.307,7.718 -6.428,14.755 -13.971,16.421 -7.543,1.666 -15.796,-2.001 -20.174,-8.367 -4.377,-6.365 -4.964,-14.972 -2.129,-22.159 -2.561,3.022 -7.481,3.87 -11.063,2.18 -3.583,-1.692 -5.763,-5.931 -5.058,-9.828 -0.94,2.447 -4.17,3.355 -6.522,2.198 -2.351,-1.158 -3.67,-3.836 -3.836,-6.451 -0.166,-2.616 0.643,-5.194 1.603,-7.633 C -67.239,3.009 -32.928,1.535 0,0"
           style="fill:#68500d;fill-opacity:1;fill-rule:nonzero;stroke:none"
           id="path1331" /></g><g
         id="g1333"
         transform="matrix(1.1207659,0,0,1.0825741,727.79605,167.51096)"><path
           d="m 0,0 c 0.15,0 0.292,0.091 0.35,0.239 4.537,11.756 10.258,23.12 17.006,33.777 0.111,0.174 0.059,0.406 -0.116,0.517 -0.175,0.109 -0.405,0.06 -0.517,-0.116 C 9.949,23.719 4.206,12.311 -0.35,0.509 -0.423,0.316 -0.327,0.1 -0.134,0.024 -0.091,0.008 -0.044,0 0,0"
           style="fill:#4d3200;fill-opacity:1;fill-rule:nonzero;stroke:none"
           id="path1335" /></g><g
         id="g1337"
         transform="matrix(1.1207659,0,0,1.0825741,749.57768,166.77513)"><path
           d="m 0,0 c 0.076,0 0.152,0.023 0.218,0.07 4.597,3.292 9.53,6.148 14.662,8.487 0.188,0.085 0.271,0.307 0.185,0.496 C 14.979,9.241 14.758,9.322 14.569,9.238 9.394,6.88 4.418,4 -0.219,0.68 -0.387,0.56 -0.426,0.325 -0.305,0.157 -0.231,0.055 -0.116,0 0,0"
           style="fill:#4d3200;fill-opacity:1;fill-rule:nonzero;stroke:none"
           id="path1339" /></g><g
         id="g1341"
         transform="matrix(1.1207659,0,0,1.0825741,713.72853,167.8091)"><path
           d="M 0,0 C 0.032,0 0.065,0.005 0.099,0.014 0.298,0.067 0.416,0.273 0.361,0.473 -3.358,14.229 -6.021,28.41 -7.552,42.618 -7.573,42.824 -7.765,42.969 -7.964,42.95 -8.17,42.929 -8.318,42.743 -8.296,42.538 -6.762,28.291 -4.092,14.072 -0.361,0.276 -0.316,0.109 -0.165,0 0,0"
           style="fill:#4d3200;fill-opacity:1;fill-rule:nonzero;stroke:none"
           id="path1343" /></g><g
         id="g1345"
         transform="matrix(1.1207659,0,0,1.0825741,698.27418,167.90426)"><path
           d="M 0,0 C 0.103,0 0.205,0.042 0.279,0.126 0.417,0.28 0.403,0.517 0.248,0.654 l -18.344,16.319 c -0.152,0.137 -0.39,0.124 -0.528,-0.032 -0.137,-0.154 -0.124,-0.39 0.031,-0.528 L -0.249,0.095 C -0.179,0.031 -0.089,0 0,0"
           style="fill:#4d3200;fill-opacity:1;fill-rule:nonzero;stroke:none"
           id="path1347" /></g><g
         id="g1349"
         transform="matrix(1.1207659,0,0,1.0825741,683.69324,167.72238)"><path
           d="m 0,0 c 0.131,0 0.259,0.068 0.327,0.191 0.102,0.181 0.037,0.41 -0.143,0.51 l -18.997,10.635 c -0.179,0.101 -0.409,0.037 -0.51,-0.144 -0.101,-0.18 -0.036,-0.409 0.144,-0.51 L -0.183,0.047 C -0.125,0.015 -0.062,0 0,0"
           style="fill:#4d3200;fill-opacity:1;fill-rule:nonzero;stroke:none"
           id="path1351" /></g><g
         id="g1353"
         transform="matrix(1.1207659,0,0,1.0825741,783.59136,185.63249)"><path
           d="m 0,0 c -9.049,-1.588 -18.653,0.167 -26.573,4.856 -7.92,4.689 -14.092,12.273 -17.075,20.984 4.373,-2.425 9.611,-2.618 14.441,-3.545 4.773,-0.914 10.208,-2.041 14.426,-4.574 C -8.213,13.777 -4.113,6.243 0,0"
           style="fill:#ac984d;fill-opacity:1;fill-rule:nonzero;stroke:none"
           id="path1355" /></g><g
         id="g1357"
         transform="matrix(1.1207659,0,0,1.0825741,783.59136,185.2275)"><path
           d="M 0,0 C 0.156,0 0.302,0.099 0.354,0.255 0.421,0.451 0.315,0.663 0.119,0.729 -12.043,4.815 -24.106,11.087 -35.734,19.37 c -0.169,0.12 -0.403,0.08 -0.523,-0.088 -0.12,-0.168 -0.081,-0.402 0.088,-0.522 C -24.48,10.434 -12.352,4.129 -0.119,0.02 -0.08,0.006 -0.04,0 0,0"
           style="fill:#4d3200;fill-opacity:1;fill-rule:nonzero;stroke:none"
           id="path1359" /></g><g
         id="g1361"
         transform="matrix(1.1207659,0,0,1.0825741,800.10843,155.5339)"><path
           d="m 0,0 c 0.051,0 0.103,0.01 0.152,0.032 0.189,0.084 0.275,0.305 0.191,0.494 -13.513,30.451 -33.86,57.758 -58.843,78.972 -0.158,0.134 -0.395,0.115 -0.527,-0.044 -0.134,-0.157 -0.116,-0.393 0.043,-0.527 C -34.088,57.785 -13.81,30.569 -0.343,0.222 -0.28,0.082 -0.144,0 0,0"
           style="fill:#4d3200;fill-opacity:1;fill-rule:nonzero;stroke:none"
           id="path1363" /></g><g
         id="g1365"
         transform="matrix(1.1207659,0,0,1.0825741,777.27831,195.2805)"><path
           d="M 0,0 C 5.251,7.539 7.705,16.989 6.788,26.147 5.871,35.306 1.592,44.097 -5.053,50.472 -4.695,45.484 -6.726,40.652 -7.92,35.881 -9.101,31.166 -10.367,25.762 -9.847,20.87 -9.036,13.252 -3.93,6.36 0,0"
           style="fill:#ac984d;fill-opacity:1;fill-rule:nonzero;stroke:none"
           id="path1367" /></g><g
         id="g1369"
         transform="matrix(1.1207659,0,0,1.0825741,740.2055,251.62187)"><path
           d="m 0,0 c -0.158,8.312 -0.343,16.782 -3.042,24.645 -1.151,3.352 -3.289,6.965 -6.801,7.443 -2.981,0.406 -5.859,-1.798 -7.066,-4.554 -1.208,-2.755 -1.063,-5.911 -0.564,-8.878 0.786,-4.668 2.397,-9.194 4.739,-13.308 -5.261,6.667 -11.118,13.022 -17.824,18.233 -1.754,1.362 -3.624,2.657 -5.763,3.249 -2.14,0.593 -4.614,0.378 -6.318,-1.044 -1.882,-1.57 -2.459,-4.321 -1.953,-6.72 0.505,-2.398 1.924,-4.502 3.485,-6.392 5.643,-6.838 13.339,-11.611 20.89,-16.257 -5.239,3.231 -11.352,4.399 -17.457,3.606 -3.508,-0.455 -7.298,-1.927 -8.732,-5.161 -1.6,-3.605 0.558,-8.01 3.87,-10.154 4.263,-2.759 9.721,-2.567 14.791,-2.279 5.791,0.329 10.759,1.415 16.55,1.745 C -7.877,-10.569 -4.124,-4.651 0,0"
           style="fill:#fe3800;fill-opacity:1;fill-rule:nonzero;stroke:none"
           id="path1371" /></g><g
         id="g1373"
         transform="matrix(1.1207659,0,0,1.0825741,741.34263,258.98111)"><path
           d="m 0,0 c -0.108,-3.835 0.547,-7.664 0.398,-11.498 -0.148,-3.834 -1.263,-7.883 -4.19,-10.363 -2.046,-1.736 -4.77,-2.509 -7.449,-2.654 -2.679,-0.144 -5.352,0.291 -7.999,0.725 1.868,3.187 4.56,5.61 7.825,7.34 -1.031,2.956 -1.397,6.159 -0.912,9.253 2.381,-0.118 4.672,-0.822 6.786,-1.921 C -4.348,-5.937 -2.377,-2.427 0,0"
           style="fill:#68500d;fill-opacity:1;fill-rule:nonzero;stroke:none"
           id="path1375" /></g><g
         id="g1377"
         transform="matrix(1.1207659,0,0,1.0825741,-18.202795,161.47009)"><path
           d="M 0,0 C -4.471,7.83 -6.038,17.284 -4.337,26.156 -2.636,35.027 2.32,43.245 9.375,48.893 8.587,44.049 10.147,39.146 10.896,34.378 11.636,29.665 12.399,24.271 11.46,19.535 9.998,12.16 4.4,5.871 0,0"
           style="fill:#68500d;fill-opacity:1;fill-rule:nonzero;stroke:none"
           id="path1379" /></g><g
         id="g1381"
         transform="matrix(1.1207659,0,0,1.0825741,-18.526248,161.21319)"><path
           d="m 0,0 c -0.051,0.062 -0.083,0.143 -0.085,0.229 -0.266,12.665 1.531,25.96 5.341,39.521 0.056,0.198 0.262,0.314 0.461,0.259 C 5.914,39.953 6.032,39.747 5.976,39.548 2.186,26.059 0.398,12.835 0.663,0.244 0.667,0.039 0.503,-0.132 0.296,-0.137 0.177,-0.139 0.07,-0.085 0,0"
           style="fill:#4d3200;fill-opacity:1;fill-rule:nonzero;stroke:none"
           id="path1383" /></g><g
         id="g1385"
         transform="matrix(1.1207659,0,0,1.0825741,-41.437393,136.62057)"><path
           d="m 0,0 c -0.123,0.149 -0.111,0.371 0.031,0.508 23.559,22.512 41.963,50.275 53.224,80.288 0.073,0.193 0.288,0.291 0.481,0.218 0.192,-0.07 0.291,-0.287 0.218,-0.481 C 42.654,50.416 24.187,22.557 0.547,-0.034 0.398,-0.177 0.162,-0.17 0.019,-0.021 0.012,-0.015 0.006,-0.007 0,0"
           style="fill:#4d3200;fill-opacity:1;fill-rule:nonzero;stroke:none"
           id="path1387" /></g><g
         id="g1389"
         transform="matrix(1.1207659,0,0,1.0825741,-11.072706,170.30519)"><path
           d="M 0,0 C 8.706,-2.348 18.249,-1.476 26.403,2.411 34.558,6.299 41.256,13.17 44.938,21.422 40.451,19.437 35.313,19.708 30.51,19.227 25.764,18.752 20.352,18.129 16.006,16.023 9.24,12.745 4.569,5.741 0,0"
           style="fill:#68500d;fill-opacity:1;fill-rule:nonzero;stroke:none"
           id="path1391" /></g><g
         id="g1393"
         transform="matrix(1.1207659,0,0,1.0825741,-11.396159,170.04829)"><path
           d="m 0,0 c -0.036,0.043 -0.061,0.094 -0.075,0.15 -0.048,0.202 0.076,0.403 0.277,0.451 12.246,2.924 24.589,7.995 36.684,15.07 0.179,0.104 0.404,0.043 0.512,-0.135 0.104,-0.178 0.044,-0.407 -0.134,-0.512 C 25.104,7.913 12.693,2.815 0.375,-0.126 0.232,-0.16 0.087,-0.106 0,0"
           style="fill:#4d3200;fill-opacity:1;fill-rule:nonzero;stroke:none"
           id="path1395" /></g><g
         id="g1397"
         transform="matrix(1.1207659,0,0,1.0825741,-1.4131606,233.88098)"><path
           d="m 0,0 c -3.365,1.879 -3.708,3.419 -3.114,4.817 0.595,1.399 1.942,2.221 5.63,1.102 -2.52,2.916 -2.316,4.48 -1.279,5.591 1.037,1.111 2.586,1.42 5.669,-0.894 -1.37,3.603 -0.646,5.006 0.709,5.696 1.355,0.689 2.915,0.453 5.021,-2.777 -0.055,3.853 1.106,4.922 2.614,5.107 1.509,0.184 2.894,-0.572 3.769,-4.325 1.265,3.64 2.722,4.245 4.203,3.903 1.481,-0.342 2.524,-1.527 2.062,-5.352 2.434,2.987 4.01,3.058 5.284,2.23 1.275,-0.828 1.848,-2.3 0.106,-5.737 3.31,1.977 4.816,1.504 5.73,0.289 0.914,-1.214 0.95,-2.793 -1.864,-5.427 3.785,0.724 5.041,-0.233 5.485,-1.687 0.444,-1.454 -0.06,-2.949 -3.604,-4.462 3.804,-0.614 4.653,-1.944 4.573,-3.462 -0.08,-1.517 -1.065,-2.751 -4.913,-2.96 3.365,-1.879 3.708,-3.419 3.114,-4.817 -0.595,-1.398 -1.942,-2.221 -5.63,-1.102 2.52,-2.916 2.316,-4.48 1.279,-5.591 -1.037,-1.112 -2.586,-1.419 -5.669,0.894 1.37,-3.602 0.646,-5.006 -0.709,-5.695 -1.355,-0.69 -2.915,-0.453 -5.021,2.776 0.055,-3.852 -1.106,-4.922 -2.614,-5.106 -1.509,-0.185 -2.894,0.571 -3.769,4.324 -1.265,-3.641 -2.722,-4.245 -4.203,-3.903 -1.481,0.342 -2.524,1.526 -2.062,5.352 -2.434,-2.987 -4.01,-3.057 -5.285,-2.229 -1.274,0.828 -1.846,2.299 -0.105,5.736 -3.31,-1.977 -4.816,-1.504 -5.73,-0.289 -0.914,1.214 -0.949,2.793 1.865,5.428 -3.786,-0.725 -5.042,0.232 -5.486,1.686 -0.444,1.454 0.06,2.949 3.604,4.462 -3.804,0.614 -4.653,1.944 -4.573,3.462 0.08,1.518 1.065,2.751 4.913,2.96"
           style="fill:#fe3800;fill-opacity:1;fill-rule:nonzero;stroke:none"
           id="path1399" /></g><g
         id="g1401"
         transform="matrix(1.1207659,0,0,1.0825741,9.8311474,231.368)"><path
           d="m 0,0 c -1.023,-4.423 1.732,-8.837 6.155,-9.86 4.423,-1.024 8.837,1.732 9.86,6.155 C 17.039,0.717 14.283,5.132 9.86,6.155 5.438,7.178 1.023,4.423 0,0"
           style="fill:#ffffff;fill-opacity:1;fill-rule:nonzero;stroke:none"
           id="path1403" /></g><g
         id="g1405"
         transform="matrix(1.1207659,0,0,1.0825741,-71.070333,175.88294)"><g
           id="g1407" /><g
           id="g1419"><g
             clip-path="url(#clipPath1411)"
             opacity="0.5"
             id="g1417"><g
               transform="translate(351.4941,89.2363)"
               id="g1415"><path
                 d="m 0,0 c 0,-8.026 -66.918,-14.532 -149.466,-14.532 -82.548,0 -149.466,6.506 -149.466,14.532 0,8.026 66.918,14.533 149.466,14.533 C -66.918,14.533 0,8.026 0,0"
                 style="fill:#fead45;fill-opacity:1;fill-rule:nonzero;stroke:none"
                 id="path1413" /></g></g></g></g><path
         d="M 309.7155,272.48752 H 244.40062 V 435.76784 H 309.7155 Z"
         style="fill:#f0231d;fill-opacity:1;fill-rule:nonzero;stroke:none;stroke-width:1.1015"
         id="path1421" /><g
         id="g1423"
         transform="matrix(1.1207659,0,0,1.0825741,299.37946,367.69732)"><path
           d="m 0,0 c -0.276,0 -0.5,0.224 -0.5,0.5 v 47.648 c 0,0.277 0.224,0.5 0.5,0.5 0.276,0 0.5,-0.223 0.5,-0.5 V 0.5 C 0.5,0.224 0.276,0 0,0"
           style="fill:#010001;fill-opacity:1;fill-rule:nonzero;stroke:none"
           id="path1425" /></g><g
         id="g1427"
         transform="matrix(1.1207659,0,0,1.0825741,294.60309,299.32811)"><path
           d="m 0,0 c -0.276,0 -0.5,0.224 -0.5,0.5 v 117.354 c 0,0.277 0.224,0.5 0.5,0.5 0.276,0 0.5,-0.223 0.5,-0.5 V 0.5 C 0.5,0.224 0.276,0 0,0"
           style="fill:#010001;fill-opacity:1;fill-rule:nonzero;stroke:none"
           id="path1429" /></g><g
         id="g1431"
         transform="matrix(1.1207659,0,0,1.0825741,299.37946,312.21226)"><path
           d="m 0,0 c -0.276,0 -0.5,0.224 -0.5,0.5 v 32.018 c 0,0.276 0.224,0.5 0.5,0.5 0.276,0 0.5,-0.224 0.5,-0.5 V 0.5 C 0.5,0.224 0.276,0 0,0"
           style="fill:#010001;fill-opacity:1;fill-rule:nonzero;stroke:none"
           id="path1433" /></g><g
         id="g1435"
         transform="matrix(1.1207659,0,0,1.0825741,303.97303,286.961)"><path
           d="m 0,0 c -0.276,0 -0.5,0.224 -0.5,0.5 v 132.939 c 0,0.277 0.224,0.5 0.5,0.5 0.276,0 0.5,-0.223 0.5,-0.5 V 0.5 C 0.5,0.224 0.276,0 0,0"
           style="fill:#010001;fill-opacity:1;fill-rule:nonzero;stroke:none"
           id="path1437" /></g><g
         id="g1439"
         transform="matrix(1.1207659,0,0,1.0825741,281.52712,315.66188)"><path
           d="m 0,0 c -0.276,0 -0.5,0.224 -0.5,0.5 v 105.638 c 0,0.276 0.224,0.5 0.5,0.5 0.276,0 0.5,-0.224 0.5,-0.5 V 0.5 C 0.5,0.224 0.276,0 0,0"
           style="fill:#010001;fill-opacity:1;fill-rule:nonzero;stroke:none"
           id="path1441" /></g><g
         id="g1443"
         transform="matrix(1.1207659,0,0,1.0825741,273.30193,293.14455)"><path
           d="m 0,0 c -0.276,0 -0.5,0.224 -0.5,0.5 v 80.992 c 0,0.277 0.224,0.5 0.5,0.5 0.276,0 0.5,-0.223 0.5,-0.5 V 0.5 C 0.5,0.224 0.276,0 0,0"
           style="fill:#010001;fill-opacity:1;fill-rule:nonzero;stroke:none"
           id="path1445" /></g><g
         id="g1447"
         transform="matrix(1.1207659,0,0,1.0825741,277.05885,464.02422)"><path
           d="M 0,0 C -18.097,0 -32.767,-14.67 -32.767,-32.766 H 32.766 C 32.766,-14.67 18.096,0 0,0"
           style="fill:#421f37;fill-opacity:1;fill-rule:nonzero;stroke:none"
           id="path1449" /></g><path
         d="M 2.0596444,403.61864 H 157.73852 V 272.48752 H 2.0596444 Z"
         style="fill:#fe3800;fill-opacity:1;fill-rule:nonzero;stroke:none;stroke-width:1.1015"
         id="path1451" /><g
         id="g1453"
         transform="matrix(1.1207659,0,0,1.0825741,140.94104,406.2651)"><path
           d="M 0,0 18.861,31.406 57.191,61.877 95.494,31.436 114.382,0 V -123.573 H 0 Z"
           style="fill:#fe3800;fill-opacity:1;fill-rule:nonzero;stroke:none"
           id="path1455" /></g><g
         id="g1457"
         transform="matrix(1.1207659,0,0,1.0825741,139.93739,277.07829)"><path
           d="m 0,0 c -0.276,0 -0.5,0.224 -0.5,0.5 v 116.001 c 0,0.276 0.224,0.5 0.5,0.5 0.276,0 0.5,-0.224 0.5,-0.5 V 0.5 C 0.5,0.224 0.276,0 0,0"
           style="fill:#ffffff;fill-opacity:1;fill-rule:nonzero;stroke:none"
           id="path1459" /></g><g
         id="g1461"
         transform="matrix(1.1207659,0,0,1.0825741,-2.1678846,378.76729)"><path
           d="M 0,0 C -0.271,0 -0.494,0.217 -0.5,0.488 -0.506,0.765 -0.288,0.993 -0.012,1 l 242.071,5.593 c 0.295,-0.041 0.504,-0.212 0.511,-0.489 0.006,-0.276 -0.212,-0.504 -0.488,-0.511 L 0.011,0 Z"
           style="fill:#ffffff;fill-opacity:1;fill-rule:nonzero;stroke:none"
           id="path1463" /></g><g
         id="g1465"
         transform="matrix(1.1207659,0,0,1.0825741,267.96249,396.59165)"><path
           d="m 0,0 h -0.008 l -128.579,2.354 c -0.276,0.005 -0.496,0.234 -0.491,0.509 0.005,0.277 0.273,0.526 0.509,0.491 L 0.009,1 C 0.286,0.995 0.505,0.767 0.5,0.491 0.496,0.218 0.273,0 0,0"
           style="fill:#ffffff;fill-opacity:1;fill-rule:nonzero;stroke:none"
           id="path1467" /></g><g
         id="g1469"
         transform="matrix(1.1207659,0,0,1.0825741,191.30165,413.3525)"><path
           d="m 0,0 h -0.004 l -47.947,0.395 c -0.276,0.001 -0.498,0.227 -0.496,0.503 0.002,0.276 0.226,0.497 0.5,0.497 h 0.004 L -0.527,1.004 C -0.66,5.279 1.48,9.521 5.028,11.931 8.725,14.44 13.71,14.798 17.726,12.838 21.608,10.946 24.341,7.011 24.79,2.724 L 65.023,1.347 C 65.298,1.337 65.514,1.105 65.505,0.829 65.496,0.553 65.283,0.348 64.988,0.347 L 24.312,1.739 C 24.056,1.748 23.848,1.95 23.83,2.206 23.557,6.314 20.988,10.135 17.288,11.939 13.587,13.744 8.996,13.417 5.59,11.103 2.184,8.789 0.186,4.643 0.5,0.538 0.509,0.398 0.461,0.261 0.366,0.158 0.271,0.058 0.139,0 0,0"
           style="fill:#ffffff;fill-opacity:1;fill-rule:nonzero;stroke:none"
           id="path1471" /></g><g
         id="g1473"
         transform="matrix(1.1207659,0,0,1.0825741,149.13832,426.37305)"><path
           d="m 0,0 c -0.267,0 -0.487,0.209 -0.499,0.478 -0.012,0.275 0.201,0.509 0.477,0.521 L 91.977,5.16 C 92.271,5.21 92.486,4.959 92.499,4.684 92.511,4.408 92.298,4.174 92.021,4.162 L 0.023,0.001 C 0.015,0 0.007,0 0,0"
           style="fill:#ffffff;fill-opacity:1;fill-rule:nonzero;stroke:none"
           id="path1475" /></g><g
         id="g1477"
         transform="matrix(1.1207659,0,0,1.0825741,240.33516,444.43536)"><path
           d="M 0,0 H -0.013 L -73.71,1.953 c -0.276,0.007 -0.494,0.237 -0.487,0.513 0.008,0.272 0.23,0.487 0.5,0.487 h 0.014 L 0.014,1 C 0.29,0.992 0.507,0.763 0.5,0.486 0.492,0.215 0.271,0 0,0"
           style="fill:#ffffff;fill-opacity:1;fill-rule:nonzero;stroke:none"
           id="path1479" /></g><g
         id="g1481"
         transform="matrix(1.1207659,0,0,1.0825741,268.76305,361.58456)"><path
           d="m 0,0 h -238.971 c -0.277,0 -0.5,0.224 -0.5,0.5 0,0.276 0.223,0.5 0.5,0.5 H 0 C 0.276,1 0.5,0.776 0.5,0.5 0.5,0.224 0.276,0 0,0"
           style="fill:#ffffff;fill-opacity:1;fill-rule:nonzero;stroke:none"
           id="path1483" /></g><g
         id="g1485"
         transform="matrix(1.1207659,0,0,1.0825741,268.76305,339.86759)"><path
           d="m 0,0 h -0.01 l -237.962,4.707 c -0.276,0.006 -0.496,0.233 -0.49,0.51 0.006,0.275 0.196,0.528 0.51,0.49 L 0.01,1 C 0.286,0.994 0.505,0.767 0.5,0.49 0.494,0.218 0.271,0 0,0"
           style="fill:#ffffff;fill-opacity:1;fill-rule:nonzero;stroke:none"
           id="path1487" /></g><g
         id="g1489"
         transform="matrix(1.1207659,0,0,1.0825741,2.2807714,322.03781)"><path
           d="M 0,0 C -0.274,0 -0.498,0.221 -0.5,0.496 -0.501,0.771 -0.28,0.998 -0.004,1 l 237.768,2.019 c 0.277,0.031 0.502,-0.22 0.504,-0.497 0.002,-0.275 -0.22,-0.501 -0.496,-0.503 L 0.004,0 Z"
           style="fill:#ffffff;fill-opacity:1;fill-rule:nonzero;stroke:none"
           id="path1491" /></g><g
         id="g1493"
         transform="matrix(1.1207659,0,0,1.0825741,268.76305,301.17931)"><path
           d="m 0,0 h -0.011 l -237.767,5.15 c -0.277,0.006 -0.495,0.235 -0.49,0.511 0.007,0.276 0.256,0.48 0.511,0.489 L 0.01,1 C 0.287,0.994 0.506,0.766 0.5,0.489 0.494,0.217 0.271,0 0,0"
           style="fill:#ffffff;fill-opacity:1;fill-rule:nonzero;stroke:none"
           id="path1495" /></g><g
         id="g1497"
         transform="matrix(1.1207659,0,0,1.0825741,268.76305,288.15453)"><path
           d="m 0,0 h -0.003 l -237.965,1.299 c -0.276,0.002 -0.499,0.226 -0.497,0.503 0.002,0.275 0.225,0.497 0.5,0.497 h 0.003 L 0.002,1 C 0.279,0.998 0.502,0.773 0.5,0.497 0.498,0.222 0.275,0 0,0"
           style="fill:#ffffff;fill-opacity:1;fill-rule:nonzero;stroke:none"
           id="path1499" /></g><g
         id="g1501"
         transform="matrix(1.1207659,0,0,1.0825741,64.655654,475.41658)"><path
           d="m 0,0 c -0.44,0 -0.88,-0.145 -1.244,-0.435 l -38.33,-30.471 c -0.188,-0.149 -0.347,-0.33 -0.471,-0.535 l -23.927,-39.842 c -0.568,-0.947 -0.261,-2.176 0.686,-2.744 0.322,-0.195 0.677,-0.286 1.027,-0.286 H 62.998 l 23.928,41.842 38.332,32.506 z"
           style="fill:#421f37;fill-opacity:1;fill-rule:nonzero;stroke:none"
           id="path1503" /></g><g
         id="g1505"
         transform="matrix(1.1207659,0,0,1.0825741,135.26167,394.96671)"><path
           d="M 0,0 C -0.351,0 -0.705,0.092 -1.027,0.286 -1.975,0.854 -2.281,2.083 -1.713,3.03 l 23.927,39.842 c 0.124,0.205 0.283,0.387 0.471,0.535 l 38.33,30.472 c 0.728,0.579 1.759,0.579 2.488,0 l 38.303,-30.441 c 0.187,-0.15 0.346,-0.331 0.47,-0.537 L 126.232,3.03 c 0.569,-0.947 0.262,-2.176 -0.684,-2.744 -0.946,-0.57 -2.176,-0.263 -2.744,0.684 L 99.033,40.532 62.259,69.759 25.457,40.502 1.717,0.971 C 1.342,0.346 0.679,0 0,0"
           style="fill:#421f37;fill-opacity:1;fill-rule:nonzero;stroke:none"
           id="path1507" /></g><g
         id="g1509"
         transform="matrix(1.1207659,0,0,1.0825741,133.34191,397.70595)"><path
           d="m 0,0 c -0.089,0 -0.178,0.023 -0.259,0.072 -0.236,0.143 -0.311,0.45 -0.169,0.687 l 24.397,40.378 c 0.031,0.051 0.071,0.095 0.116,0.133 l 38.331,30.47 c 0.218,0.171 0.532,0.135 0.703,-0.08 0.172,-0.217 0.136,-0.532 -0.08,-0.703 L 24.779,40.542 0.427,0.241 C 0.334,0.086 0.169,0 0,0"
           style="fill:#010001;fill-opacity:1;fill-rule:nonzero;stroke:none"
           id="path1511" /></g><g
         id="g1513"
         transform="matrix(1.1207659,0,0,1.0825741,6.7107114,407.19969)"><path
           d="m 0,0 c -0.086,0 -0.172,0.021 -0.251,0.067 -0.24,0.139 -0.32,0.445 -0.182,0.684 l 17.225,29.686 c 0.14,0.242 0.446,0.321 0.684,0.182 0.24,-0.139 0.321,-0.444 0.182,-0.683 L 0.433,0.249 C 0.339,0.089 0.172,0 0,0"
           style="fill:#010001;fill-opacity:1;fill-rule:nonzero;stroke:none"
           id="path1515" /></g><g
         id="g1517"
         transform="matrix(1.1207659,0,0,1.0825741,8.2802314,398.4185)"><path
           d="M 0,0 C -0.087,0 -0.174,0.022 -0.254,0.069 -0.492,0.21 -0.571,0.516 -0.431,0.754 l 20.257,34.361 c 0.14,0.239 0.447,0.317 0.685,0.177 0.238,-0.141 0.317,-0.446 0.176,-0.685 L 0.43,0.246 C 0.338,0.088 0.171,0 0,0"
           style="fill:#010001;fill-opacity:1;fill-rule:nonzero;stroke:none"
           id="path1519" /></g><g
         id="g1521"
         transform="matrix(1.1207659,0,0,1.0825741,19.20938,397.73344)"><path
           d="m 0,0 c -0.081,0 -0.163,0.02 -0.239,0.061 -0.242,0.132 -0.332,0.436 -0.2,0.678 l 20.487,37.596 c 0.133,0.242 0.435,0.33 0.679,0.2 0.242,-0.133 0.332,-0.436 0.2,-0.679 L 0.44,0.261 C 0.349,0.095 0.177,0 0,0"
           style="fill:#010001;fill-opacity:1;fill-rule:nonzero;stroke:none"
           id="path1523" /></g><g
         id="g1525"
         transform="matrix(1.1207659,0,0,1.0825741,72.245929,397.33592)"><path
           d="m 0,0 c -0.083,0 -0.167,0.021 -0.244,0.063 -0.241,0.135 -0.327,0.44 -0.193,0.681 l 20.583,36.841 c 0.136,0.242 0.44,0.327 0.681,0.192 0.241,-0.134 0.327,-0.439 0.192,-0.68 L 0.437,0.256 C 0.345,0.092 0.175,0 0,0"
           style="fill:#010001;fill-opacity:1;fill-rule:nonzero;stroke:none"
           id="path1527" /></g><g
         id="g1529"
         transform="matrix(1.1207659,0,0,1.0825741,87.143155,405.81995)"><path
           d="M 0,0 C -0.087,0 -0.175,0.022 -0.254,0.069 -0.492,0.21 -0.571,0.517 -0.431,0.754 l 16.648,28.2 c 0.14,0.238 0.45,0.316 0.684,0.177 0.239,-0.141 0.318,-0.447 0.177,-0.685 L 0.431,0.246 C 0.337,0.088 0.171,0 0,0"
           style="fill:#010001;fill-opacity:1;fill-rule:nonzero;stroke:none"
           id="path1531" /></g><g
         id="g1533"
         transform="matrix(1.1207659,0,0,1.0825741,99.754565,396.83058)"><path
           d="M 0,0 C -0.088,0 -0.179,0.023 -0.259,0.073 -0.496,0.217 -0.57,0.524 -0.426,0.76 l 21.505,35.308 c 0.143,0.239 0.452,0.312 0.686,0.167 0.236,-0.143 0.31,-0.451 0.167,-0.686 L 0.427,0.24 C 0.333,0.085 0.168,0 0,0"
           style="fill:#010001;fill-opacity:1;fill-rule:nonzero;stroke:none"
           id="path1535" /></g><g
         id="g1537"
         transform="matrix(1.1207659,0,0,1.0825741,59.557402,448.58747)"><path
           d="m 0,0 c -0.129,0 -0.258,0.05 -0.355,0.148 -0.195,0.198 -0.193,0.514 0.003,0.707 l 18.295,18.059 c 0.198,0.195 0.514,0.191 0.707,-0.004 0.194,-0.197 0.193,-0.514 -0.004,-0.707 L 0.352,0.145 C 0.254,0.048 0.127,0 0,0"
           style="fill:#010001;fill-opacity:1;fill-rule:nonzero;stroke:none"
           id="path1539" /></g><g
         id="g1541"
         transform="matrix(1.1207659,0,0,1.0825741,70.620595,449.73662)"><path
           d="m 0,0 c -0.13,0 -0.261,0.051 -0.358,0.151 -0.193,0.199 -0.189,0.515 0.009,0.707 l 17.898,17.399 c 0.2,0.192 0.516,0.188 0.708,-0.01 0.192,-0.198 0.188,-0.515 -0.01,-0.707 L 0.349,0.142 C 0.251,0.047 0.126,0 0,0"
           style="fill:#010001;fill-opacity:1;fill-rule:nonzero;stroke:none"
           id="path1543" /></g><g
         id="g1545"
         transform="matrix(1.1207659,0,0,1.0825741,94.404035,449.30532)"><path
           d="m 0,0 c -0.109,0 -0.218,0.035 -0.309,0.106 -0.217,0.171 -0.255,0.486 -0.085,0.703 l 13.351,16.989 c 0.171,0.218 0.488,0.253 0.702,0.085 0.218,-0.171 0.255,-0.486 0.085,-0.702 L 0.394,0.191 C 0.294,0.065 0.147,0 0,0"
           style="fill:#010001;fill-opacity:1;fill-rule:nonzero;stroke:none"
           id="path1547" /></g><g
         id="g1549"
         transform="matrix(1.1207659,0,0,1.0825741,103.83102,453.18202)"><path
           d="M 0,0 C -0.113,0 -0.227,0.038 -0.321,0.116 -0.533,0.293 -0.561,0.608 -0.384,0.82 L 6.675,9.291 C 6.853,9.503 7.167,9.53 7.379,9.354 7.591,9.178 7.619,8.862 7.442,8.65 L 0.383,0.18 C 0.285,0.062 0.142,0 0,0"
           style="fill:#010001;fill-opacity:1;fill-rule:nonzero;stroke:none"
           id="path1551" /></g><g
         id="g1553"
         transform="matrix(1.1207659,0,0,1.0825741,151.68134,448.61811)"><path
           d="m 0,0 c -0.131,0 -0.262,0.051 -0.359,0.152 -0.193,0.199 -0.187,0.515 0.011,0.707 l 17.944,17.353 c 0.197,0.191 0.516,0.186 0.706,-0.012 0.193,-0.198 0.187,-0.514 -0.011,-0.707 L 0.347,0.141 C 0.251,0.047 0.125,0 0,0"
           style="fill:#010001;fill-opacity:1;fill-rule:nonzero;stroke:none"
           id="path1555" /></g><path
         d="M 252.24711,354.8595 H 157.8293 v -82.37198 h 94.41781 z"
         style="fill:#fe3800;fill-opacity:1;fill-rule:nonzero;stroke:none;stroke-width:1.1015"
         id="path1557" /><path
         d="m 246.02798,354.8595 h -81.97731 v -82.37198 h 81.97731 z"
         style="fill:#800d1c;fill-opacity:1;fill-rule:nonzero;stroke:none;stroke-width:1.1015"
         id="path1559" /><g
         id="g1561"
         transform="matrix(1.1207659,0,0,1.0825741,206.06146,271.94764)"><path
           d="m 0,0 c -0.277,0 -0.5,0.224 -0.5,0.5 v 74.87 c 0,0.276 0.223,0.5 0.5,0.5 0.276,0 0.5,-0.224 0.5,-0.5 V 0.5 C 0.5,0.224 0.276,0 0,0"
           style="fill:#ffffff;fill-opacity:1;fill-rule:nonzero;stroke:none"
           id="path1563" /></g><g
         id="g1565"
         transform="matrix(1.1207659,0,0,1.0825741,203.77286,273.57995)"><path
           d="m 0,0 c -0.189,0 -0.37,0.107 -0.454,0.291 l -33.555,72.856 c -0.115,0.251 -0.006,0.548 0.245,0.664 0.248,0.114 0.548,0.006 0.663,-0.246 L 0.454,0.709 C 0.569,0.458 0.46,0.161 0.209,0.046 0.142,0.015 0.07,0 0,0"
           style="fill:#ffffff;fill-opacity:1;fill-rule:nonzero;stroke:none"
           id="path1567" /></g><g
         id="g1569"
         transform="matrix(1.1207659,0,0,1.0825741,244.12323,276.25575)"><path
           d="m 0,0 c -0.189,0 -0.371,0.108 -0.455,0.293 l -31.874,69.993 c -0.114,0.251 -0.004,0.548 0.248,0.662 0.252,0.114 0.548,0.004 0.663,-0.248 L 0.456,0.707 C 0.57,0.456 0.459,0.159 0.208,0.045 0.14,0.015 0.07,0 0,0"
           style="fill:#ffffff;fill-opacity:1;fill-rule:nonzero;stroke:none"
           id="path1571" /></g><g
         id="g1573"
         transform="matrix(1.1207659,0,0,1.0825741,166.65735,273.07255)"><path
           d="m 0,0 c -0.069,0 -0.14,0.015 -0.207,0.045 -0.251,0.113 -0.362,0.409 -0.248,0.661 l 33.256,73.502 c 0.114,0.251 0.413,0.361 0.662,0.249 0.251,-0.113 0.363,-0.409 0.249,-0.661 L 0.455,0.294 C 0.372,0.109 0.19,0 0,0"
           style="fill:#ffffff;fill-opacity:1;fill-rule:nonzero;stroke:none"
           id="path1575" /></g><g
         id="g1577"
         transform="matrix(1.1207659,0,0,1.0825741,207.22661,276.90486)"><path
           d="M 0,0 C -0.07,0 -0.142,0.015 -0.209,0.047 -0.46,0.163 -0.569,0.46 -0.453,0.71 l 32.695,70.484 c 0.116,0.251 0.416,0.363 0.664,0.244 0.251,-0.117 0.359,-0.414 0.243,-0.664 L 0.454,0.29 C 0.37,0.107 0.189,0 0,0"
           style="fill:#ffffff;fill-opacity:1;fill-rule:nonzero;stroke:none"
           id="path1579" /></g><g
         id="g1581"
         transform="matrix(1.1207659,0,0,1.0825741,213.63975,415.33372)"><path
           d="m 0,0 c 0,4.237 -3.436,7.673 -7.674,7.673 -4.238,0 -7.674,-3.436 -7.674,-7.673 0,-4.238 3.436,-7.674 7.674,-7.674 C -3.436,-7.674 0,-4.238 0,0"
           style="fill:#800d1c;fill-opacity:1;fill-rule:nonzero;stroke:none"
           id="path1583" /></g><g
         id="g1585"
         transform="matrix(1.1207659,0,0,1.0825741,-76.100666,166.89248)"><path
           d="m 0,0 c 0.857,4.735 0.785,9.526 -0.771,14.08 -1.557,4.553 -3.539,8.993 -4.435,13.722 -0.682,3.602 -0.358,8.031 2.771,9.943 3.054,1.865 7.273,0.115 9.322,-2.818 2.049,-2.934 2.489,-6.661 2.87,-10.22 2.176,4.369 1.746,9.537 0.58,14.277 -1.166,4.74 -3.193,9.226 -4.511,13.926 -0.866,3.084 -1.243,6.862 1.092,9.055 2.515,2.359 6.895,1.296 9.179,-1.286 2.285,-2.582 3.024,-6.143 3.679,-9.529 1.589,6.529 2.128,12.452 1.86,19.164 -0.106,2.643 -0.35,5.349 0.409,7.882 0.759,2.533 2.821,4.896 5.459,5.074 2.385,0.159 4.589,-1.517 5.77,-3.594 1.181,-2.078 1.544,-4.506 1.885,-6.871 4.75,7.076 8.164,14.752 10.122,23.047 0.646,2.736 1.146,5.555 2.464,8.04 1.318,2.483 3.659,4.632 6.462,4.853 2.44,0.192 4.835,-1.141 6.356,-3.06 1.521,-1.918 2.266,-4.351 2.597,-6.777 0.861,-6.296 -0.877,-12.726 -3.766,-18.386 -2.889,-5.658 -6.887,-10.664 -10.855,-15.626 1.512,1.494 3.48,2.794 5.484,3.499 2.006,0.704 4.564,0.317 5.736,-1.457 0.826,-1.249 0.792,-2.922 0.236,-4.313 -0.556,-1.392 -1.567,-2.548 -2.626,-3.607 -5.473,-5.479 -12.491,-9 -19.642,-12.096 0.197,0.048 0.395,0.094 0.598,0.137 1.886,0.395 4.066,-0.013 5.287,-1.503 1.339,-1.633 1.152,-4.123 0.097,-5.953 -1.055,-1.83 -2.806,-3.136 -4.543,-4.338 -7.154,-4.95 -9.493,-5.602 -17.192,-9.652 2.002,0.599 4.204,0.945 6.294,0.959 2.089,0.014 4.278,-0.643 5.664,-2.207 1.386,-1.563 1.706,-4.136 0.368,-5.741 C 33.334,17.465 31.782,17.019 30.338,16.581 19.248,13.227 9.273,6.948 0,0"
           style="fill:#ff7d00;fill-opacity:1;fill-rule:nonzero;stroke:none"
           id="path1587" /></g><g
         id="g1589"
         transform="matrix(1.1207659,0,0,1.0825741,-87.498183,151.18249)"><path
           d="m 0,0 c -0.017,0.008 -0.033,0.017 -0.047,0.027 -0.131,0.093 -0.162,0.275 -0.07,0.405 20.859,29.392 59.684,84.102 65.322,114.384 0.03,0.159 0.181,0.262 0.339,0.234 0.157,-0.031 0.261,-0.182 0.232,-0.339 C 60.552,86.651 29.269,40.837 0.357,0.097 0.275,-0.02 0.124,-0.057 0,0"
           style="fill:#4d3200;fill-opacity:1;fill-rule:nonzero;stroke:none"
           id="path1591" /></g><g
         id="g1593"
         transform="matrix(1.1207659,0,0,1.0825741,-36.717287,225.04284)"><path
           d="M 0,0 C -0.079,0.036 -0.141,0.106 -0.162,0.198 -0.198,0.354 -0.101,0.51 0.055,0.547 6.098,1.949 11.934,4.632 16.93,8.305 17.06,8.4 17.241,8.369 17.336,8.242 17.431,8.112 17.403,7.931 17.274,7.836 12.214,4.118 6.306,1.401 0.187,-0.019 0.122,-0.034 0.057,-0.026 0,0"
           style="fill:#4d3200;fill-opacity:1;fill-rule:nonzero;stroke:none"
           id="path1595" /></g><g
         id="g1597"
         transform="matrix(1.1207659,0,0,1.0825741,-44.602661,212.80467)"><path
           d="M 0,0 C -0.119,0.055 -0.189,0.184 -0.165,0.317 1.892,11.371 2.03,22.604 0.248,33.706 0.222,33.864 0.33,34.014 0.488,34.039 0.645,34.064 0.795,33.957 0.821,33.798 2.614,22.631 2.474,11.33 0.407,0.211 0.377,0.053 0.226,-0.051 0.068,-0.021 0.044,-0.017 0.021,-0.01 0,0"
           style="fill:#4d3200;fill-opacity:1;fill-rule:nonzero;stroke:none"
           id="path1599" /></g><g
         id="g1601"
         transform="matrix(1.1207659,0,0,1.0825741,-51.745302,201.3742)"><path
           d="m 0,0 c -0.067,0.03 -0.123,0.087 -0.151,0.162 -0.056,0.15 0.02,0.317 0.171,0.373 5.847,2.192 11.335,5.216 16.312,8.989 0.127,0.098 0.311,0.073 0.406,-0.055 C 16.835,9.341 16.81,9.158 16.682,9.062 11.661,5.254 6.123,2.203 0.223,-0.008 0.147,-0.037 0.068,-0.031 0,0"
           style="fill:#4d3200;fill-opacity:1;fill-rule:nonzero;stroke:none"
           id="path1603" /></g><g
         id="g1605"
         transform="matrix(1.1207659,0,0,1.0825741,-55.767619,195.65052)"><path
           d="m 0,0 c -0.104,0.048 -0.175,0.155 -0.169,0.276 0.436,9.827 -1.49,19.751 -5.571,28.701 -0.067,0.146 -0.002,0.318 0.144,0.384 0.146,0.068 0.318,0.002 0.385,-0.143 C -1.093,20.185 0.852,10.168 0.411,0.251 0.404,0.091 0.269,-0.033 0.108,-0.026 0.069,-0.024 0.033,-0.016 0,0"
           style="fill:#4d3200;fill-opacity:1;fill-rule:nonzero;stroke:none"
           id="path1607" /></g><g
         id="g1609"
         transform="matrix(1.1207659,0,0,1.0825741,-65.319795,182.04116)"><path
           d="M 0,0 C -0.057,0.025 -0.106,0.07 -0.136,0.13 -0.21,0.272 -0.155,0.447 -0.012,0.521 5.397,3.322 11.166,5.365 17.132,6.595 17.287,6.627 17.442,6.526 17.475,6.369 17.507,6.212 17.406,6.058 17.25,6.025 11.334,4.808 5.617,2.782 0.254,0.006 0.172,-0.037 0.079,-0.036 0,0"
           style="fill:#4d3200;fill-opacity:1;fill-rule:nonzero;stroke:none"
           id="path1611" /></g><g
         id="g1613"
         transform="matrix(1.1207659,0,0,1.0825741,-70.741948,174.5413)"><path
           d="m 0,0 c -0.106,0.049 -0.177,0.159 -0.168,0.283 0.57,8.446 -0.707,17.096 -3.694,25.016 -0.056,0.149 0.019,0.317 0.169,0.374 0.15,0.056 0.317,-0.019 0.374,-0.169 C -0.303,17.507 0.987,8.772 0.411,0.244 0.4,0.084 0.262,-0.037 0.102,-0.026 0.066,-0.023 0.031,-0.015 0,0"
           style="fill:#4d3200;fill-opacity:1;fill-rule:nonzero;stroke:none"
           id="path1615" /></g><g
         id="g1617"
         transform="matrix(1.1207659,0,0,1.0825741,22.622,163.56335)"><path
           d="m 0,0 c -3.466,3.165 -3.65,9.25 -0.382,12.618 3.269,3.368 9.357,3.367 12.624,-0.002 -1.041,7.267 -2.344,14.913 -0.295,21.963 2.049,7.05 8.067,13.507 15.407,13.6 6.553,0.082 12.074,-4.662 16.67,-9.333 -0.347,8.718 7.26,16.667 15.78,18.549 8.52,1.881 17.842,-2.262 22.787,-9.451 4.945,-7.189 5.607,-16.913 2.405,-25.029 2.892,3.413 8.45,4.371 12.496,2.461 4.046,-1.91 6.51,-6.697 5.713,-11.1 1.061,2.764 4.71,3.79 7.366,2.483 2.657,-1.308 4.145,-4.332 4.333,-7.287 0.187,-2.955 -0.726,-5.867 -1.811,-8.621 C 75.948,3.398 37.192,1.734 0,0"
           style="fill:#ac984d;fill-opacity:1;fill-rule:nonzero;stroke:none"
           id="path1619" /></g><g
         id="g1621"
         transform="matrix(1.1207659,0,0,1.0825741,71.708074,165.08675)"><path
           d="M 0,0 C -0.134,0 -0.262,0.082 -0.313,0.216 -5.441,13.5 -11.906,26.34 -19.53,38.382 c -0.098,0.156 -0.052,0.363 0.105,0.463 0.155,0.097 0.363,0.053 0.463,-0.104 C -11.315,26.663 -4.83,13.782 0.313,0.457 0.379,0.284 0.293,0.09 0.121,0.022 0.082,0.008 0.04,0 0,0"
           style="fill:#4d3200;fill-opacity:1;fill-rule:nonzero;stroke:none"
           id="path1623" /></g><g
         id="g1625"
         transform="matrix(1.1207659,0,0,1.0825741,87.597955,165.42505)"><path
           d="m 0,0 c -0.029,0 -0.058,0.004 -0.088,0.012 -0.179,0.049 -0.284,0.232 -0.236,0.412 4.204,15.545 7.212,31.566 8.94,47.617 0.02,0.185 0.188,0.312 0.37,0.298 C 9.17,48.318 9.303,48.153 9.283,47.969 7.552,31.883 4.537,15.827 0.324,0.248 0.284,0.099 0.148,0 0,0"
           style="fill:#4d3200;fill-opacity:1;fill-rule:nonzero;stroke:none"
           id="path1627" /></g><g
         id="g1629"
         transform="matrix(1.1207659,0,0,1.0825741,105.05412,165.5319)"><path
           d="m 0,0 c -0.092,0 -0.184,0.038 -0.25,0.112 -0.124,0.139 -0.112,0.35 0.027,0.474 l 20.72,18.433 c 0.137,0.124 0.35,0.112 0.473,-0.028 0.123,-0.138 0.112,-0.35 -0.027,-0.473 L 0.223,0.085 C 0.159,0.027 0.079,0 0,0"
           style="fill:#4d3200;fill-opacity:1;fill-rule:nonzero;stroke:none"
           id="path1631" /></g><g
         id="g1633"
         transform="matrix(1.1207659,0,0,1.0825741,121.52355,165.32676)"><path
           d="m 0,0 c -0.117,0 -0.231,0.062 -0.293,0.171 -0.09,0.162 -0.033,0.367 0.129,0.457 l 21.456,12.013 c 0.161,0.089 0.366,0.033 0.457,-0.13 0.09,-0.161 0.033,-0.366 -0.129,-0.456 L 0.164,0.042 C 0.112,0.014 0.056,0 0,0"
           style="fill:#4d3200;fill-opacity:1;fill-rule:nonzero;stroke:none"
           id="path1635" /></g><g
         id="g1637"
         transform="matrix(1.1207659,0,0,1.0825741,586.17786,160.68035)"><path
           d="m 0,0 c 6.526,9.534 15.174,17.608 25.134,23.465 3.875,2.278 8.081,4.34 10.791,7.927 2.71,3.587 3.263,9.323 -0.177,12.217 -3.391,2.855 -8.547,1.566 -12.556,-0.326 C 14.77,39.311 7.23,33.663 1.601,26.246 c 5.114,7.044 10.228,14.088 15.342,21.131 2.081,2.865 4.229,5.894 4.68,9.406 0.451,3.512 -1.454,7.599 -4.926,8.295 C 13.576,65.704 10.639,63.5 8.366,61.272 -0.635,52.451 -6.831,40.909 -9.449,28.581 c 2.891,13.852 4.133,28.047 3.688,42.19 -0.114,3.633 -0.738,7.917 -3.969,9.583 -2.563,1.321 -5.853,0.28 -7.888,-1.762 -2.036,-2.041 -3.061,-4.866 -3.833,-7.644 -3.736,-13.436 -3.345,-27.718 -2.487,-41.637 -4.349,14.507 -9.407,30.051 -21.626,39 -3.632,2.659 -8.677,4.59 -12.511,2.232 -2.998,-1.845 -4.126,-5.808 -3.622,-9.292 0.504,-3.484 2.322,-6.619 4.105,-9.655 5.408,-9.205 10.26,-18.732 15.668,-27.938 -4.789,7.846 -11.712,14.702 -19.203,20.028 -2.665,1.894 -5.603,3.643 -8.862,3.914 -3.259,0.27 -6.879,-1.351 -7.958,-4.438 -0.854,-2.438 0.049,-5.205 1.615,-7.261 1.566,-2.054 3.724,-3.561 5.769,-5.139 C -60.295,22.847 -52.06,12.318 -46.85,0.447 -30.938,1.636 -15.928,0.915 0,0"
           style="fill:#ff7d00;fill-opacity:1;fill-rule:nonzero;stroke:none"
           id="path1639" /></g><g
         id="g1641"
         transform="matrix(1.1207659,0,0,1.0825741,564.68302,161.33476)"><path
           d="M 0,0 H -0.021 C -0.187,0.012 -0.312,0.156 -0.3,0.321 l 5.267,74.517 c 0.012,0.166 0.172,0.296 0.321,0.278 0.165,-0.012 0.29,-0.155 0.278,-0.321 L 0.299,0.279 C 0.288,0.12 0.156,0 0,0"
           style="fill:#4d3200;fill-opacity:1;fill-rule:nonzero;stroke:none"
           id="path1643" /></g><g
         id="g1645"
         transform="matrix(1.1207659,0,0,1.0825741,557.10586,161.49228)"><path
           d="m 0,0 c -0.138,0 -0.262,0.096 -0.293,0.235 -5.013,22.664 -14.081,43.929 -26.952,63.206 -0.092,0.138 -0.055,0.325 0.083,0.417 0.137,0.091 0.324,0.056 0.417,-0.084 C -13.833,44.436 -4.735,23.102 0.293,0.365 0.329,0.203 0.228,0.043 0.065,0.007 0.043,0.002 0.021,0 0,0"
           style="fill:#4d3200;fill-opacity:1;fill-rule:nonzero;stroke:none"
           id="path1647" /></g><g
         id="g1649"
         transform="matrix(1.1207659,0,0,1.0825741,548.95184,161.48383)"><path
           d="m 0,0 c -0.103,0 -0.203,0.054 -0.259,0.148 -9.582,16.296 -22.921,30.459 -38.575,40.961 -0.138,0.093 -0.175,0.28 -0.082,0.417 0.094,0.138 0.281,0.174 0.417,0.082 C -22.77,31.058 -9.368,16.825 0.259,0.453 0.343,0.311 0.295,0.126 0.152,0.042 0.104,0.014 0.052,0 0,0"
           style="fill:#4d3200;fill-opacity:1;fill-rule:nonzero;stroke:none"
           id="path1651" /></g><g
         id="g1653"
         transform="matrix(1.1207659,0,0,1.0825741,574.39345,160.96268)"><path
           d="m 0,0 c -0.017,0 -0.034,0.001 -0.052,0.004 -0.163,0.028 -0.273,0.183 -0.245,0.348 3.524,20.488 12.151,39.931 24.947,56.226 0.104,0.131 0.292,0.151 0.422,0.051 0.131,-0.103 0.154,-0.292 0.051,-0.422 C 12.387,39.99 3.802,20.641 0.296,0.249 0.271,0.103 0.144,0 0,0"
           style="fill:#4d3200;fill-opacity:1;fill-rule:nonzero;stroke:none"
           id="path1655" /></g><g
         id="g1657"
         transform="matrix(1.1207659,0,0,1.0825741,578.20663,160.78298)"><path
           d="m 0,0 c -0.038,0 -0.077,0.008 -0.115,0.023 -0.154,0.065 -0.226,0.241 -0.161,0.394 6.861,16.4 19.961,30.168 35.938,37.77 0.149,0.072 0.329,0.008 0.401,-0.142 0.071,-0.149 0.007,-0.329 -0.143,-0.4 C 20.074,30.105 7.083,16.452 0.277,0.185 0.229,0.069 0.118,0 0,0"
           style="fill:#4d3200;fill-opacity:1;fill-rule:nonzero;stroke:none"
           id="path1659" /></g><g
         id="g1661"
         transform="matrix(1.1207659,0,0,1.0825741,222.21955,662.33035)"><path
           d="m 0,0 h -88.988 c 6.171,4.626 13.418,6.935 21.086,6.106 3.171,3.169 7.813,4.764 12.24,4.061 6.433,4.876 14.593,7.283 22.63,6.529 8.036,-0.755 15.741,-4.617 21.154,-10.606 C -7.44,7.166 -2.369,3.903 0,0"
           style="fill:#ffffff;fill-opacity:1;fill-rule:nonzero;stroke:none"
           id="path1663" /></g><g
         id="g1665"
         transform="matrix(1.1207659,0,0,1.0825741,472.57344,672.78185)"><path
           d="m 0,0 h -66.498 c 3.849,4.673 10.433,7.133 16.296,5.625 5.449,5.013 12.697,7.938 20.101,7.913 7.405,-0.026 14.761,-2.939 20.175,-7.99 C -6.187,6.93 -1.65,3.628 0,0"
           style="fill:#ffffff;fill-opacity:1;fill-rule:nonzero;stroke:none"
           id="path1667" /></g><g
         id="g1669"
         transform="matrix(1.1207659,0,0,1.0825741,560.04675,594.051)"><path
           d="M 0,0 H 75.976 C 66.196,7.899 52.86,12.003 40.583,9.299 35.06,13.748 27.18,16.125 20.206,14.833 13.232,13.541 3.563,6.132 0,0"
           style="fill:#ffffff;fill-opacity:1;fill-rule:nonzero;stroke:none"
           id="path1671" /></g><g
         id="g1673"
         transform="matrix(1.1207659,0,0,1.0825741,164.98337,570.56899)"><path
           d="m 0,0 h -74.39 c 9.575,7.735 22.633,11.753 34.654,9.105 5.408,4.356 13.124,6.684 19.952,5.419 C -12.956,13.258 -3.488,6.005 0,0"
           style="fill:#ffffff;fill-opacity:1;fill-rule:nonzero;stroke:none"
           id="path1675" /></g><g
         id="g1677"
         transform="matrix(1.1207659,0,0,1.0825741,637.05996,663.06607)"><path
           d="M 0,0 H 88.17 C 83.067,6.195 74.337,9.458 66.563,7.458 59.339,14.104 49.729,17.983 39.911,17.949 30.094,17.915 20.34,14.052 13.161,7.355 8.205,9.188 2.189,4.81 0,0"
           style="fill:#ffffff;fill-opacity:1;fill-rule:nonzero;stroke:none"
           id="path1679" /></g><g
         id="g1681"
         transform="translate(430.5977,45.6621)" /><g
         id="g1685"
         transform="translate(441.4678,83.8086)" /></g></g></svg>
