<?xml version="1.0" encoding="UTF-8" standalone="no"?>
<!-- Created with Inkscape (http://www.inkscape.org/) -->

<svg
   version="1.1"
   id="svg1049"
   width="666.66669"
   height="666.66669"
   viewBox="0 0 666.66669 666.66669"
   sodipodi:docname="Logo.svg"
   inkscape:version="1.2.1 (9c6d41e410, 2022-07-14)"
   xmlns:inkscape="http://www.inkscape.org/namespaces/inkscape"
   xmlns:sodipodi="http://sodipodi.sourceforge.net/DTD/sodipodi-0.dtd"
   xmlns="http://www.w3.org/2000/svg"
   xmlns:svg="http://www.w3.org/2000/svg">
  <defs
     id="defs1053">
    <clipPath
       clipPathUnits="userSpaceOnUse"
       id="clipPath1067">
      <path
         d="M 0,500 H 500 V 0 H 0 Z"
         id="path1065" />
    </clipPath>
    <clipPath
       clipPathUnits="userSpaceOnUse"
       id="clipPath1097">
      <path
         d="M 0,500 H 500 V 0 H 0 Z"
         id="path1095" />
    </clipPath>
    <clipPath
       clipPathUnits="userSpaceOnUse"
       id="clipPath1125">
      <path
         d="M 0,500 H 500 V 0 H 0 Z"
         id="path1123" />
    </clipPath>
    <clipPath
       clipPathUnits="userSpaceOnUse"
       id="clipPath1161">
      <path
         d="M 0,500 H 500 V 0 H 0 Z"
         id="path1159" />
    </clipPath>
    <clipPath
       clipPathUnits="userSpaceOnUse"
       id="clipPath1189">
      <path
         d="M 0,500 H 500 V 0 H 0 Z"
         id="path1187" />
    </clipPath>
    <clipPath
       clipPathUnits="userSpaceOnUse"
       id="clipPath1221">
      <path
         d="M 0,500 H 500 V 0 H 0 Z"
         id="path1219" />
    </clipPath>
    <clipPath
       clipPathUnits="userSpaceOnUse"
       id="clipPath1279">
      <path
         d="M 0,500 H 500 V 0 H 0 Z"
         id="path1277" />
    </clipPath>
    <clipPath
       clipPathUnits="userSpaceOnUse"
       id="clipPath1311">
      <path
         d="M 0,500 H 500 V 0 H 0 Z"
         id="path1309" />
    </clipPath>
    <clipPath
       clipPathUnits="userSpaceOnUse"
       id="clipPath1335">
      <path
         d="M 0,500 H 500 V 0 H 0 Z"
         id="path1333" />
    </clipPath>
  </defs>
  <sodipodi:namedview
     id="namedview1051"
     pagecolor="#505050"
     bordercolor="#ffffff"
     borderopacity="1"
     inkscape:showpageshadow="0"
     inkscape:pageopacity="0"
     inkscape:pagecheckerboard="1"
     inkscape:deskcolor="#505050"
     showgrid="false"
     inkscape:zoom="1.1625"
     inkscape:cx="337.20431"
     inkscape:cy="377.20431"
     inkscape:window-width="1920"
     inkscape:window-height="991"
     inkscape:window-x="-9"
     inkscape:window-y="-9"
     inkscape:window-maximized="1"
     inkscape:current-layer="g1121">
    <inkscape:page
       x="0"
       y="0"
       id="page1055"
       width="666.66669"
       height="666.66669" />
  </sodipodi:namedview>
  <g
     id="g1057"
     inkscape:groupmode="layer"
     inkscape:label="Page 1"
     transform="matrix(1.3333333,0,0,-1.3333333,0,666.66667)">
    <g
       id="g1119"
       transform="matrix(4.5028771,0,0,4.5028771,-894.11691,-268.04862)">
      <g
         id="g1121"
         clip-path="url(#clipPath1125)">
        <g
           id="g1127"
           transform="translate(267.6782,159.8936)">
          <path
             d="m 0,0 c 0,0 3.776,2.293 5.594,-0.502 1.818,-2.793 -1.242,-9.662 -9.278,-9.131 0,0 -4.776,1.658 -17.528,1.571 0,0 -2.5,5.675 0.802,8.951 0,0 2.692,2.079 4.455,0.793 0,0 1.668,4.612 5.918,4.481 4.247,-0.13 2.554,-3.237 2.554,-3.237 0,0 2.227,2.056 5.031,1.178 C 0.352,3.228 0,0 0,0"
             style="fill:#d85833;fill-opacity:1;fill-rule:nonzero;stroke:none"
             id="path1129" />
        </g>
        <g
           id="g1131"
           transform="translate(253.0415,87.7559)">
          <path
             d="M 0,0 C 15.512,15.574 15.462,40.774 -0.113,56.286 -2.148,58.313 -4.349,60.072 -6.67,61.567 4.728,62.666 16.512,58.864 25.259,50.153 40.834,34.64 40.885,9.44 25.373,-6.135 11.887,-19.675 -8.918,-21.479 -24.358,-11.53 -15.461,-10.673 -6.8,-6.828 0,0"
             style="fill:#502d16;fill-opacity:1;fill-rule:nonzero;stroke:none"
             id="path1133" />
        </g>
        <g
           id="g1135"
           transform="translate(235.3433,93.0889)">
          <path
             d="M 0,0 C 8.438,0 16.26,2.629 22.7,7.107 20.89,3.316 18.429,-0.238 15.301,-3.379 9.031,-9.676 0.712,-13.612 -8.119,-14.463 l -1.8,-0.175 C -17.659,-8.972 -23.28,-0.584 -25.358,9.122 -18.472,3.426 -9.636,0 0,0"
             style="fill:#502d16;fill-opacity:1;fill-rule:nonzero;stroke:none"
             id="path1137" />
        </g>
        <g
           id="g1139"
           transform="translate(234.6104,108.8037)">
          <path
             d="m 0,0 c 7.292,-4.246 15.375,-5.912 23.192,-5.282 -3.471,-2.364 -7.386,-4.199 -11.67,-5.338 -8.587,-2.286 -17.756,-1.502 -25.817,2.207 l -1.643,0.755 C -19.774,1.133 -20.41,11.211 -17.322,20.645 -14.238,12.256 -8.327,4.85 0,0"
             style="fill:#502d16;fill-opacity:1;fill-rule:nonzero;stroke:none"
             id="path1141" />
        </g>
        <g
           id="g1143"
           transform="translate(244.5659,149.0742)">
          <path
             d="m 0,0 c 0,0 -8.667,0.341 -13.477,-5.346 0,0 16.075,-2.406 26.955,-12.902 0,0 -2.106,6.971 -13.478,18.248"
             style="fill:#ffdd55;fill-opacity:1;fill-rule:nonzero;stroke:none"
             id="path1145" />
        </g>
        <g
           id="g1147"
           transform="translate(258.0435,128.1719)">
          <path
             d="M 0,0 C 0,0 5.317,-15.684 -2.666,-17.586 -10.65,-19.487 -6.022,-5.869 0,0"
             style="fill:#d85833;fill-opacity:1;fill-rule:nonzero;stroke:none"
             id="path1149" />
        </g>
      </g>
    </g>
  </g>
</svg>
