<?xml version="1.0" standalone="no"?><svg xmlns="http://www.w3.org/2000/svg" viewBox="0 0 1440 320"><path fill="#f3f4f5" fill-opacity="1" d="M0,96L40,112C80,128,160,160,240,186.7C320,213,400,235,480,224C560,213,640,171,720,165.3C800,160,880,192,960,224C1040,256,1120,288,1200,272C1280,256,1360,192,1400,160L1440,128L1440,320L1400,320C1360,320,1280,320,1200,320C1120,320,1040,320,960,320C880,320,800,320,720,320C640,320,560,320,480,320C400,320,320,320,240,320C160,320,80,320,40,320L0,320Z"></path></svg>